<svg width="86" height="86" viewBox="0 0 86 86" fill="none" xmlns="http://www.w3.org/2000/svg">
  <defs>
    <linearGradient id="iconGradient" x1="10" y1="10" x2="76" y2="76" gradientUnits="userSpaceOnUse">
      <stop offset="0" stop-color="#FF5AA5" />
      <stop offset="0.5" stop-color="#7156FF" />
      <stop offset="1" stop-color="#30D4FF" />
    </linearGradient>
    <radialGradient id="iconGlow" cx="0" cy="0" r="1" gradientUnits="userSpaceOnUse" gradientTransform="translate(43 43) scale(40)">
      <stop offset="0" stop-color="#FFFFFF" stop-opacity="0.35" />
      <stop offset="1" stop-color="#FFFFFF" stop-opacity="0" />
    </radialGradient>
  </defs>
  <circle cx="43" cy="43" r="40" fill="url(#iconGlow)" />
  <path d="M63.7 12.8c11.1 8.4 18.1 21.8 18.1 36.6S74.8 77.6 63.7 86c-8.8 6.6-20 3.6-28.4-3.2C25.3 75 18.4 63.6 15.3 51.2l-0.7-2.6C9.8 39.9 5 29.6 5 18.6 5 10 11.9 3 20.4 3c5.7 0 10.7 2.7 14 7 5.9 7.4 13.1 13.5 21.5 17.8 6.2 3.2 8.7 1.5 7.8-4.7-0.7-4.2-1-8.6-1-13 0-3 0.3-6 0.8-9.1Z" fill="url(#iconGradient)" />
  <path d="M43 26.6c-7.1-3.7-13.2-8.8-18.3-15-2.6-3.1-4.6-4.2-6.9-4.2-3.4 0-6.2 2.7-6.2 6.1 0 9 4.3 17.5 11.1 22.8 4.6 3.6 10.3 5.7 15.3 8.6 3.6 2 6.7 4.7 9.5 7.6 6.7 7.1 11.8 16.2 13.7 26.4 0.4 2 0.3 4.1 0.1 6.3 4.5-1.3 8.9-3.4 12.7-6.1 11.4-8 18.7-21 18.7-35.8S74.3 18 62.9 10c-3.8-2.6-8.1-4.7-12.6-5.9 0.1 5.2 0.4 10.4 1.4 15.4 1.6 8.7-5.2 13.2-13.7 7.1Z" fill="url(#iconGradient)" opacity="0.8" />
</svg>
