<svg width="320" height="86" viewBox="0 0 320 86" fill="none" xmlns="http://www.w3.org/2000/svg">
  <defs>
    <linearGradient id="swirlGradient" x1="14" y1="7" x2="92" y2="79" gradientUnits="userSpaceOnUse">
      <stop offset="0" stop-color="#FF5AA5" />
      <stop offset="0.5" stop-color="#7156FF" />
      <stop offset="1" stop-color="#30D4FF" />
    </linearGradient>
    <linearGradient id="textGradient" x1="125" y1="21" x2="302" y2="65" gradientUnits="userSpaceOnUse">
      <stop offset="0" stop-color="#FF4C7E" />
      <stop offset="0.45" stop-color="#7A3EFF" />
      <stop offset="1" stop-color="#2BC7FF" />
    </linearGradient>
    <filter id="shadow" x="0" y="0" width="120" height="86" filterUnits="userSpaceOnUse" color-interpolation-filters="sRGB">
      <feGaussianBlur in="SourceAlpha" stdDeviation="4" result="blur" />
      <feOffset dy="3" />
      <feComponentTransfer>
        <feFuncA type="linear" slope="0.25" />
      </feComponentTransfer>
      <feMerge>
        <feMergeNode />
        <feMergeNode in="SourceGraphic" />
      </feMerge>
    </filter>
  </defs>

  <g filter="url(#shadow)">
    <path d="M64.2 9.8C76.8 19.5 85 34.1 85 50c0 15.9-8.2 30.5-20.8 40.2-9 6.8-20.5 3.7-29.2-3.3-10.3-8.1-17.6-20.1-20.8-33.5-0.2-0.7-0.5-1.4-0.7-2.1C10.6 42.8 5 31.2 5 18.6 5 9.8 11.6 3 20.4 3c6.2 0 11.8 2.9 15.4 7.5 5.9 7.6 13.1 13.8 21.6 18.3 6.8 3.6 9.5 1.7 8.5-5.1-0.7-4.7-1.1-9.5-1.1-14.3C64.8 7.5 64.6 8.6 64.2 9.8Z" fill="url(#swirlGradient)" />
    <path d="M42.7 27c-7.4-4-13.9-9.4-19.3-16C20.6 7.6 18.5 6.5 16.1 6.5 12.4 6.5 9.5 9.4 9.5 13.1c0 9.7 4.5 18.8 11.8 24.6 4.9 3.9 10.9 6.1 16.2 9.3 3.8 2.2 7.1 5 10.1 8.2 7.1 7.7 12.5 17.5 14.5 28.5 0.4 2.2 0.3 4.5 0.1 6.8 4.8-1.4 9.4-3.7 13.5-6.6 12.1-8.5 19.9-22.4 19.9-38.2 0-15.8-7.8-29.7-19.9-38.2-4-2.8-8.6-5-13.3-6.3 0.1 5.5 0.5 11 1.5 16.4 1.7 9.3-5.6 14.3-15.2 8.5Z" fill="url(#swirlGradient)" opacity="0.85" />
  </g>

  <path d="M128 63.5V24h11.4l7.8 13.7c1.9 3.2 3.8 6.6 5.5 10h0.2c-0.4-4.3-0.5-8.8-0.5-13.5V24h10v39.5h-11.4l-8-14c-2.1-3.6-4.1-7.4-6.1-11.2h-0.2c0.2 4.1 0.3 8.5 0.3 13.1v12.1H128Zm46.8 0V24h10.4l9.8 19.2h0.2V24h10.7v39.5h-9.9l-10.3-20.3h-0.2v20.3h-10.7Zm46.5 0V24h11.7l6.8 13.6 6.8-13.6h11.7v39.5h-10.8V41.2h-0.2l-8.4 16.9h-0.3l-8.4-16.9h-0.2v22.3h-10.8Z" fill="url(#textGradient)" />
</svg>
